<svg width="138" height="32" viewBox="0 0 138 32" fill="none" xmlns="http://www.w3.org/2000/svg">
<rect width="32" height="32" rx="5" fill="#F15F26"/>
<g filter="url(#filter0_dd_130_1073)">
<path d="M16 6.25C10.9534 6.25 7 8.55625 7 11.5V20.5C7 23.4437 10.9534 25.75 16 25.75C21.0466 25.75 25 23.4437 25 20.5V11.5C25 8.55625 21.0466 6.25 16 6.25ZM23.5 16C23.5 16.9019 22.7612 17.8216 21.4741 18.5237C20.0247 19.3141 18.0803 19.75 16 19.75C13.9197 19.75 11.9753 19.3141 10.5259 18.5237C9.23875 17.8216 8.5 16.9019 8.5 16V14.44C10.0994 15.8463 12.8341 16.75 16 16.75C19.1659 16.75 21.9006 15.8425 23.5 14.44V16ZM21.4741 23.0237C20.0247 23.8141 18.0803 24.25 16 24.25C13.9197 24.25 11.9753 23.8141 10.5259 23.0237C9.23875 22.3216 8.5 21.4019 8.5 20.5V18.94C10.0994 20.3463 12.8341 21.25 16 21.25C19.1659 21.25 21.9006 20.3425 23.5 18.94V20.5C23.5 21.4019 22.7612 22.3216 21.4741 23.0237Z" fill="white"/>
</g>
<path d="M131.366 25.832C130.422 25.832 129.566 25.64 128.798 25.256C128.03 24.856 127.422 24.264 126.974 23.48C126.526 22.696 126.302 21.728 126.302 20.576C126.302 19.44 126.534 18.464 126.998 17.648C127.478 16.832 128.102 16.208 128.87 15.776C129.654 15.328 130.502 15.104 131.414 15.104C132.374 15.104 133.158 15.312 133.766 15.728C134.39 16.128 134.878 16.6 135.23 17.144L135.062 17.528L135.302 15.536H137.582V25.592H135.11V23.072L135.374 23.672C135.31 23.8 135.174 23.984 134.966 24.224C134.758 24.448 134.478 24.688 134.126 24.944C133.79 25.2 133.39 25.416 132.926 25.592C132.478 25.752 131.958 25.832 131.366 25.832ZM132.038 23.816C132.566 23.816 133.038 23.72 133.454 23.528C133.87 23.336 134.222 23.064 134.51 22.712C134.798 22.36 134.998 21.944 135.11 21.464V19.376C134.982 18.928 134.766 18.544 134.462 18.224C134.158 17.888 133.79 17.624 133.358 17.432C132.942 17.24 132.478 17.144 131.966 17.144C131.39 17.144 130.862 17.288 130.382 17.576C129.902 17.848 129.518 18.232 129.23 18.728C128.942 19.224 128.798 19.8 128.798 20.456C128.798 21.08 128.942 21.648 129.23 22.16C129.534 22.672 129.934 23.08 130.43 23.384C130.926 23.672 131.462 23.816 132.038 23.816Z" fill="#F15F26"/>
<path d="M119.338 11.1201H121.81V15.5601H124.498V17.5041H121.81V25.5921H119.338V17.5041H117.562V15.5601H119.338V11.1201Z" fill="#F15F26"/>
<path d="M108.374 25.832C107.43 25.832 106.574 25.64 105.806 25.256C105.038 24.856 104.43 24.264 103.982 23.48C103.534 22.696 103.31 21.728 103.31 20.576C103.31 19.44 103.542 18.464 104.006 17.648C104.486 16.832 105.11 16.208 105.878 15.776C106.662 15.328 107.51 15.104 108.422 15.104C109.382 15.104 110.166 15.312 110.774 15.728C111.398 16.128 111.886 16.6 112.238 17.144L112.07 17.528L112.31 15.536H114.59V25.592H112.118V23.072L112.382 23.672C112.318 23.8 112.182 23.984 111.974 24.224C111.766 24.448 111.486 24.688 111.134 24.944C110.798 25.2 110.398 25.416 109.934 25.592C109.486 25.752 108.966 25.832 108.374 25.832ZM109.046 23.816C109.574 23.816 110.046 23.72 110.462 23.528C110.878 23.336 111.23 23.064 111.518 22.712C111.806 22.36 112.006 21.944 112.118 21.464V19.376C111.99 18.928 111.774 18.544 111.47 18.224C111.166 17.888 110.798 17.624 110.366 17.432C109.95 17.24 109.486 17.144 108.974 17.144C108.398 17.144 107.87 17.288 107.39 17.576C106.91 17.848 106.526 18.232 106.238 18.728C105.95 19.224 105.806 19.8 105.806 20.456C105.806 21.08 105.95 21.648 106.238 22.16C106.542 22.672 106.942 23.08 107.438 23.384C107.934 23.672 108.47 23.816 109.046 23.816Z" fill="#F15F26"/>
<path d="M86.5623 25.592V8.16797H91.4103C93.1383 8.16797 94.6103 8.43197 95.8263 8.95997C97.0423 9.48797 98.0183 10.184 98.7543 11.048C99.5063 11.912 100.05 12.872 100.386 13.928C100.738 14.984 100.914 16.048 100.914 17.12C100.914 18.416 100.682 19.584 100.218 20.624C99.7543 21.664 99.1223 22.56 98.3223 23.312C97.5223 24.048 96.6023 24.616 95.5623 25.016C94.5223 25.4 93.4183 25.592 92.2503 25.592H86.5623ZM89.1303 23.12H91.7703C92.7143 23.12 93.5783 22.984 94.3623 22.712C95.1623 22.44 95.8503 22.04 96.4263 21.512C97.0183 20.984 97.4743 20.336 97.7943 19.568C98.1143 18.8 98.2743 17.92 98.2743 16.928C98.2743 15.856 98.0903 14.928 97.7223 14.144C97.3703 13.344 96.8983 12.688 96.3063 12.176C95.7143 11.648 95.0503 11.264 94.3143 11.024C93.5943 10.768 92.8583 10.64 92.1063 10.64H89.1303V23.12Z" fill="#F15F26"/>
<path d="M79.0308 15.5359L79.2708 18.4159L79.1508 18.0319C79.4228 17.4239 79.8068 16.9039 80.3028 16.4719C80.7988 16.0399 81.3108 15.7119 81.8388 15.4879C82.3828 15.2479 82.8388 15.1279 83.2068 15.1279L83.0868 17.5759C82.3188 17.5279 81.6468 17.6719 81.0708 18.0079C80.5108 18.3439 80.0708 18.7919 79.7508 19.3519C79.4308 19.9119 79.2708 20.5119 79.2708 21.1519V25.5919H76.8228V15.5359H79.0308Z" fill="#F15F26"/>
<path d="M70.5883 15.5358H73.0603V25.5918H70.5883V15.5358ZM70.4443 11.9358C70.4443 11.5518 70.5963 11.2318 70.9003 10.9758C71.2043 10.7198 71.5323 10.5918 71.8843 10.5918C72.2523 10.5918 72.5803 10.7198 72.8683 10.9758C73.1563 11.2318 73.3003 11.5518 73.3003 11.9358C73.3003 12.3198 73.1563 12.6398 72.8683 12.8958C72.5803 13.1358 72.2523 13.2558 71.8843 13.2558C71.5323 13.2558 71.2043 13.1358 70.9003 12.8958C70.5963 12.6398 70.4443 12.3198 70.4443 11.9358Z" fill="#F15F26"/>
<path d="M60.5852 25.832C59.6412 25.832 58.7852 25.64 58.0172 25.256C57.2492 24.856 56.6412 24.264 56.1932 23.48C55.7452 22.696 55.5212 21.728 55.5212 20.576C55.5212 19.44 55.7532 18.464 56.2172 17.648C56.6972 16.832 57.3212 16.208 58.0892 15.776C58.8732 15.328 59.7212 15.104 60.6332 15.104C61.5932 15.104 62.3772 15.312 62.9852 15.728C63.6092 16.128 64.0972 16.6 64.4492 17.144L64.2812 17.528L64.5212 15.536H66.8012V25.592H64.3292V23.072L64.5932 23.672C64.5292 23.8 64.3932 23.984 64.1852 24.224C63.9772 24.448 63.6972 24.688 63.3452 24.944C63.0092 25.2 62.6092 25.416 62.1452 25.592C61.6972 25.752 61.1772 25.832 60.5852 25.832ZM61.2572 23.816C61.7852 23.816 62.2572 23.72 62.6732 23.528C63.0892 23.336 63.4412 23.064 63.7292 22.712C64.0172 22.36 64.2172 21.944 64.3292 21.464V19.376C64.2012 18.928 63.9852 18.544 63.6812 18.224C63.3772 17.888 63.0092 17.624 62.5772 17.432C62.1612 17.24 61.6972 17.144 61.1852 17.144C60.6092 17.144 60.0812 17.288 59.6012 17.576C59.1212 17.848 58.7372 18.232 58.4492 18.728C58.1612 19.224 58.0172 19.8 58.0172 20.456C58.0172 21.08 58.1612 21.648 58.4492 22.16C58.7532 22.672 59.1532 23.08 59.6492 23.384C60.1452 23.672 60.6812 23.816 61.2572 23.816Z" fill="#F15F26"/>
<path d="M43.9998 8.16797H54.4398V10.64H46.5678V15.872H53.4558V18.32H46.5678V25.592H43.9998V8.16797Z" fill="#F15F26"/>
<defs>
<filter id="filter0_dd_130_1073" x="4" y="4.25" width="24" height="25.5" filterUnits="userSpaceOnUse" color-interpolation-filters="sRGB">
<feFlood flood-opacity="0" result="BackgroundImageFix"/>
<feColorMatrix in="SourceAlpha" type="matrix" values="0 0 0 0 0 0 0 0 0 0 0 0 0 0 0 0 0 0 127 0" result="hardAlpha"/>
<feOffset dy="1"/>
<feGaussianBlur stdDeviation="1.5"/>
<feComposite in2="hardAlpha" operator="out"/>
<feColorMatrix type="matrix" values="0 0 0 0 0 0 0 0 0 0 0 0 0 0 0 0 0 0 0.1 0"/>
<feBlend mode="normal" in2="BackgroundImageFix" result="effect1_dropShadow_130_1073"/>
<feColorMatrix in="SourceAlpha" type="matrix" values="0 0 0 0 0 0 0 0 0 0 0 0 0 0 0 0 0 0 127 0" result="hardAlpha"/>
<feMorphology radius="1" operator="erode" in="SourceAlpha" result="effect2_dropShadow_130_1073"/>
<feOffset dy="1"/>
<feGaussianBlur stdDeviation="1"/>
<feComposite in2="hardAlpha" operator="out"/>
<feColorMatrix type="matrix" values="0 0 0 0 0 0 0 0 0 0 0 0 0 0 0 0 0 0 0.1 0"/>
<feBlend mode="normal" in2="effect1_dropShadow_130_1073" result="effect2_dropShadow_130_1073"/>
<feBlend mode="normal" in="SourceGraphic" in2="effect2_dropShadow_130_1073" result="shape"/>
</filter>
</defs>
</svg>
